<?xml version="1.0" standalone="no"?>
<!DOCTYPE svg PUBLIC "-//W3C//DTD SVG 20010904//EN"
 "http://www.w3.org/TR/2001/REC-SVG-20010904/DTD/svg10.dtd">
<svg version="1.0" xmlns="http://www.w3.org/2000/svg"
 width="1171.000000pt" height="322.000000pt" viewBox="0 0 1171.000000 322.000000"
 preserveAspectRatio="xMidYMid meet">

<g transform="translate(0.000000,322.000000) scale(0.100000,-0.100000)"
fill="#000000" stroke="none">
<path d="M7335 2360 c0 -212 1 -298 2 -193 2 106 2 280 0 385 -1 106 -2 20 -2
-192z"/>
<path d="M7703 2733 c9 -2 23 -2 30 0 6 3 -1 5 -18 5 -16 0 -22 -2 -12 -5z"/>
<path d="M8115 2360 c0 -212 1 -298 2 -193 2 106 2 280 0 385 -1 106 -2 20 -2
-192z"/>
<path d="M8622 2658 l-2 -87 -152 -3 -153 -3 -3 -49 c-2 -27 0 -52 5 -57 4 -4
6 16 5 46 l-4 55 151 0 c117 0 153 3 157 13 3 8 3 49 1 93 l-3 79 -2 -87z"/>
<path d="M8976 2725 c-9 -26 -7 -32 5 -12 6 10 9 21 6 23 -2 3 -7 -2 -11 -11z"/>
<path d="M9202 2709 c6 -16 12 -28 14 -26 5 5 -13 57 -20 57 -3 0 0 -14 6 -31z"/>
<path d="M9585 2360 c0 -212 1 -298 2 -193 2 106 2 280 0 385 -1 106 -2 20 -2
-192z"/>
<path d="M9794 2460 c0 -157 2 -221 3 -142 2 78 2 206 0 285 -1 78 -3 14 -3
-143z"/>
<path d="M7825 2703 c47 -24 96 -74 116 -118 10 -22 19 -33 19 -24 0 42 -114
160 -154 159 -6 -1 3 -8 19 -17z"/>
<path d="M9224 2655 c23 -66 60 -155 63 -151 4 4 -56 158 -64 166 -4 3 -3 -4
1 -15z"/>
<path d="M8946 2645 c-9 -26 -7 -32 5 -12 6 10 9 21 6 23 -2 3 -7 -2 -11 -11z"/>
<path d="M8926 2595 c-9 -26 -7 -32 5 -12 6 10 9 21 6 23 -2 3 -7 -2 -11 -11z"/>
<path d="M7542 2468 l2 -103 3 97 4 97 62 4 62 3 -67 2 -68 2 2 -102z"/>
<path d="M7735 2532 c5 -8 12 -35 16 -61 l6 -46 2 41 c1 27 -5 48 -16 61 -10
10 -14 13 -8 5z"/>
<path d="M7962 2470 c-3 -91 -32 -162 -86 -205 l-37 -30 67 -122 c36 -68 68
-123 71 -123 5 0 -104 207 -120 228 -7 9 1 22 30 47 59 50 85 117 80 208 l-3
72 -2 -75z"/>
<path d="M8896 2515 c-9 -26 -7 -32 5 -12 6 10 9 21 6 23 -2 3 -7 -2 -11 -11z"/>
<path d="M9296 2470 c4 -14 15 -43 25 -65 11 -22 16 -29 13 -15 -4 14 -15 43
-25 65 -11 22 -16 29 -13 15z"/>
<path d="M8876 2465 c-9 -26 -7 -32 5 -12 6 10 9 21 6 23 -2 3 -7 -2 -11 -11z"/>
<path d="M9076 2465 c-9 -26 -7 -32 5 -11 9 15 13 16 21 5 8 -12 9 -12 6 0 -6
21 -25 24 -32 6z"/>
<path d="M8594 2365 c0 -49 1 -71 3 -48 2 23 2 64 0 90 -2 26 -3 8 -3 -42z"/>
<path d="M8851 2399 c-6 -18 -9 -34 -7 -36 2 -2 9 10 15 28 6 18 9 34 7 36 -2
2 -9 -10 -15 -28z"/>
<path d="M9041 2369 c-11 -34 -19 -64 -17 -66 2 -2 13 24 25 58 11 34 19 64
17 66 -2 2 -13 -24 -25 -58z"/>
<path d="M7724 2398 l-19 -23 23 19 c12 11 22 21 22 23 0 8 -8 2 -26 -19z"/>
<path d="M9126 2390 c3 -14 11 -32 16 -40 6 -10 7 -7 2 10 -3 14 -11 32 -16
40 -6 10 -7 7 -2 -10z"/>
<path d="M9346 2340 c4 -14 15 -43 25 -65 11 -22 16 -29 13 -15 -4 14 -15 43
-25 65 -11 22 -16 29 -13 15z"/>
<path d="M8826 2335 c-9 -26 -7 -32 5 -12 6 10 9 21 6 23 -2 3 -7 -2 -11 -11z"/>
<path d="M8806 2285 c-9 -26 -7 -32 5 -12 6 10 9 21 6 23 -2 3 -7 -2 -11 -11z"/>
<path d="M9006 2274 c-12 -31 -5 -34 84 -34 79 0 90 2 89 18 0 10 -3 12 -6 5
-3 -9 -30 -13 -85 -13 -75 0 -79 1 -73 20 7 24 0 27 -9 4z"/>
<path d="M8314 2266 c-3 -7 -4 -35 -2 -62 l3 -49 157 -3 157 -3 4 -87 3 -87 2
93 2 92 -161 0 -161 0 4 60 c3 61 1 71 -8 46z"/>
<path d="M9396 2210 c4 -14 15 -43 25 -65 11 -22 16 -29 13 -15 -4 14 -15 43
-25 65 -11 22 -16 29 -13 15z"/>
<path d="M8776 2205 c-9 -26 -7 -32 5 -12 6 10 9 21 6 23 -2 3 -7 -2 -11 -11z"/>
<path d="M7544 2090 c0 -63 1 -89 3 -57 2 31 2 83 0 115 -2 31 -3 5 -3 -58z"/>
<path d="M7685 2090 c30 -60 57 -110 60 -110 3 0 -20 50 -50 110 -30 61 -57
110 -60 110 -3 0 20 -49 50 -110z"/>
<path d="M10104 2080 c0 -58 1 -81 3 -52 2 28 2 76 0 105 -2 28 -3 5 -3 -53z"/>
<path d="M8756 2155 c-9 -26 -7 -32 5 -12 6 10 9 21 6 23 -2 3 -7 -2 -11 -11z"/>
<path d="M9446 2080 c4 -14 15 -43 25 -65 11 -22 16 -29 13 -15 -4 14 -15 43
-25 65 -11 22 -16 29 -13 15z"/>
<path d="M1818 2083 c7 -3 16 -2 19 1 4 3 -2 6 -13 5 -11 0 -14 -3 -6 -6z"/>
<path d="M8726 2075 c-9 -26 -7 -32 5 -12 6 10 9 21 6 23 -2 3 -7 -2 -11 -11z"/>
<path d="M8941 2059 c-6 -18 -9 -34 -7 -36 2 -2 9 10 15 28 6 18 9 34 7 36 -2
2 -9 -10 -15 -28z"/>
<path d="M1008 2065 c-3 -11 -9 -29 -13 -40 -3 -11 1 -7 10 8 9 16 15 33 12
40 -2 6 -6 3 -9 -8z"/>
<path d="M1120 2075 c0 -5 5 -17 10 -25 5 -8 10 -10 10 -5 0 6 -5 17 -10 25
-5 8 -10 11 -10 5z"/>
<path d="M2392 2033 l-2 -53 130 0 130 0 3 -347 2 -348 3 353 2 352 -129 0
-130 0 -4 48 -3 47 -2 -52z"/>
<path d="M3265 1685 c0 -220 1 -309 2 -197 2 112 2 292 0 400 -1 108 -2 17 -2
-203z"/>
<path d="M4328 2065 c-3 -11 -9 -29 -13 -40 -3 -11 1 -7 10 8 9 16 15 33 12
40 -2 6 -6 3 -9 -8z"/>
<path d="M4440 2075 c0 -5 5 -17 10 -25 5 -8 10 -10 10 -5 0 6 -5 17 -10 25
-5 8 -10 11 -10 5z"/>
<path d="M4975 1685 c0 -220 1 -309 2 -197 2 112 2 292 0 400 -1 108 -2 17 -2
-203z"/>
<path d="M5082 1733 l-2 -353 189 0 190 0 4 -47 3 -48 2 53 2 52 -190 0 -190
0 -3 348 -2 347 -3 -352z"/>
<path d="M1725 2058 c-53 -29 -105 -97 -105 -135 1 -10 7 -1 15 20 16 47 48
82 95 108 19 10 31 18 25 18 -5 0 -19 -5 -30 -11z"/>
<path d="M2041 2066 c2 -2 15 -9 29 -15 24 -11 24 -11 6 3 -16 13 -49 24 -35
12z"/>
<path d="M3691 2056 c2 -2 15 -9 29 -15 24 -11 24 -11 6 3 -16 13 -49 24 -35
12z"/>
<path d="M2125 2010 c47 -55 48 -56 37 -35 -6 11 -23 31 -39 45 l-28 25 30
-35z"/>
<path d="M8706 2025 c-9 -26 -7 -32 5 -12 6 10 9 21 6 23 -2 3 -7 -2 -11 -11z"/>
<path d="M9240 2035 c0 -5 5 -17 10 -25 5 -8 10 -10 10 -5 0 6 -5 17 -10 25
-5 8 -10 11 -10 5z"/>
<path d="M1140 2025 c0 -5 5 -17 10 -25 5 -8 10 -10 10 -5 0 6 -5 17 -10 25
-5 8 -10 11 -10 5z"/>
<path d="M3765 2010 c10 -11 20 -20 23 -20 3 0 -3 9 -13 20 -10 11 -20 20 -23
20 -3 0 3 -9 13 -20z"/>
<path d="M4460 2025 c0 -5 5 -17 10 -25 5 -8 10 -10 10 -5 0 6 -5 17 -10 25
-5 8 -10 11 -10 5z"/>
<path d="M8916 1993 c-6 -14 -5 -15 5 -6 7 7 10 15 7 18 -3 3 -9 -2 -12 -12z"/>
<path d="M941 1899 c-22 -57 -39 -104 -37 -106 2 -2 22 42 45 98 22 57 39 104
37 106 -2 2 -22 -42 -45 -98z"/>
<path d="M1888 1993 c6 -2 18 -2 25 0 6 3 1 5 -13 5 -14 0 -19 -2 -12 -5z"/>
<path d="M4261 1899 c-22 -57 -39 -104 -37 -106 2 -2 22 42 45 98 22 57 39
104 37 106 -2 2 -22 -42 -45 -98z"/>
<path d="M2765 1977 c-3 -6 -4 -165 -2 -352 l2 -340 3 347 2 347 133 4 132 3
-133 2 c-99 1 -134 -1 -137 -11z"/>
<path d="M3364 1977 c-2 -7 -3 -80 -1 -162 l3 -150 2 157 2 157 103 4 102 3
-103 2 c-76 1 -104 -1 -108 -11z"/>
<path d="M1161 1975 c0 -5 6 -21 14 -35 8 -14 14 -20 14 -15 0 6 -6 21 -14 35
-8 14 -14 21 -14 15z"/>
<path d="M1768 1958 c-13 -13 -17 -18 -8 -12 8 6 24 16 35 22 11 6 15 12 8 12
-7 0 -22 -10 -35 -22z"/>
<path d="M2017 1960 c34 -20 63 -66 63 -100 0 -11 4 -20 9 -20 10 0 0 44 -18
78 -13 24 -59 62 -75 62 -6 0 3 -9 21 -20z"/>
<path d="M4481 1975 c0 -5 6 -21 14 -35 8 -14 14 -20 14 -15 0 6 -6 21 -14 35
-8 14 -14 21 -14 15z"/>
<path d="M3689 1925 c17 -20 32 -48 32 -63 2 -24 2 -24 6 -4 5 25 -29 87 -53
96 -9 3 -2 -10 15 -29z"/>
<path d="M2171 1945 c1 -19 18 -51 18 -35 0 8 -4 22 -9 30 -5 8 -9 11 -9 5z"/>
<path d="M3810 1945 c0 -5 5 -17 10 -25 5 -8 10 -10 10 -5 0 6 -5 17 -10 25
-5 8 -10 11 -10 5z"/>
<path d="M1066 1922 c-4 -7 -3 -12 1 -12 5 0 15 -16 22 -36 7 -19 15 -34 17
-31 2 2 -4 24 -14 47 -12 28 -21 39 -26 32z"/>
<path d="M4386 1922 c-4 -7 -3 -12 1 -12 5 0 15 -16 22 -36 7 -19 15 -34 17
-31 2 2 -4 24 -14 47 -12 28 -21 39 -26 32z"/>
<path d="M1724 1894 c-4 -14 -3 -34 2 -45 7 -15 9 -8 9 26 0 52 -2 55 -11 19z"/>
<path d="M1190 1905 c0 -5 5 -17 10 -25 5 -8 10 -10 10 -5 0 6 -5 17 -10 25
-5 8 -10 11 -10 5z"/>
<path d="M4510 1905 c0 -5 5 -17 10 -25 5 -8 10 -10 10 -5 0 6 -5 17 -10 25
-5 8 -10 11 -10 5z"/>
<path d="M1046 1885 c-9 -26 -7 -32 5 -12 6 10 9 21 6 23 -2 3 -7 -2 -11 -11z"/>
<path d="M1615 1855 c6 -58 43 -116 93 -147 17 -11 32 -18 32 -15 0 3 -15 15
-34 26 -45 28 -67 64 -83 131 l-13 55 5 -50z"/>
<path d="M3832 1870 c0 -19 2 -27 5 -17 2 9 2 25 0 35 -3 9 -5 1 -5 -18z"/>
<path d="M4366 1885 c-9 -26 -7 -32 5 -12 6 10 9 21 6 23 -2 3 -7 -2 -11 -11z"/>
<path d="M2192 1860 c0 -14 2 -19 5 -12 2 6 2 18 0 25 -3 6 -5 1 -5 -13z"/>
<path d="M1210 1855 c0 -5 5 -17 10 -25 5 -8 10 -10 10 -5 0 6 -5 17 -10 25
-5 8 -10 11 -10 5z"/>
<path d="M4530 1855 c0 -5 5 -17 10 -25 5 -8 10 -10 10 -5 0 6 -5 17 -10 25
-5 8 -10 11 -10 5z"/>
<path d="M1026 1835 c-9 -26 -7 -32 5 -12 6 10 9 21 6 23 -2 3 -7 -2 -11 -11z"/>
<path d="M4346 1835 c-9 -26 -7 -32 5 -12 6 10 9 21 6 23 -2 3 -7 -2 -11 -11z"/>
<path d="M1110 1825 c0 -5 5 -17 10 -25 5 -8 10 -10 10 -5 0 6 -5 17 -10 25
-5 8 -10 11 -10 5z"/>
<path d="M4430 1825 c0 -5 5 -17 10 -25 5 -8 10 -10 10 -5 0 6 -5 17 -10 25
-5 8 -10 11 -10 5z"/>
<path d="M1744 1811 c7 -11 46 -35 46 -28 0 3 -12 12 -26 22 -15 9 -23 12 -20
6z"/>
<path d="M1230 1805 c0 -5 5 -17 10 -25 5 -8 10 -10 10 -5 0 6 -5 17 -10 25
-5 8 -10 11 -10 5z"/>
<path d="M3722 1790 c0 -14 2 -19 5 -12 2 6 2 18 0 25 -3 6 -5 1 -5 -13z"/>
<path d="M3831 1784 c0 -17 -12 -52 -25 -77 -13 -26 -18 -42 -10 -36 20 16 46
93 41 120 -4 20 -5 19 -6 -7z"/>
<path d="M4550 1805 c0 -5 5 -17 10 -25 5 -8 10 -10 10 -5 0 6 -5 17 -10 25
-5 8 -10 11 -10 5z"/>
<path d="M1006 1785 c-9 -26 -7 -32 5 -12 6 10 9 21 6 23 -2 3 -7 -2 -11 -11z"/>
<path d="M4326 1785 c-9 -26 -7 -32 5 -12 6 10 9 21 6 23 -2 3 -7 -2 -11 -11z"/>
<path d="M851 1679 c-22 -57 -39 -104 -37 -106 2 -2 22 42 45 98 22 57 39 104
37 106 -2 2 -22 -42 -45 -98z"/>
<path d="M1130 1778 c0 -2 18 -49 40 -103 22 -54 40 -100 40 -102 0 -1 -63 -3
-140 -3 -128 0 -139 1 -134 18 5 14 4 15 -5 2 -6 -8 -11 -18 -11 -22 0 -5 68
-8 150 -8 83 0 150 4 150 8 0 5 -18 53 -40 107 -36 89 -50 118 -50 103z"/>
<path d="M4171 1679 c-22 -57 -39 -104 -37 -106 2 -2 22 42 45 98 22 57 39
104 37 106 -2 2 -22 -42 -45 -98z"/>
<path d="M4450 1778 c0 -2 18 -49 40 -103 22 -54 40 -100 40 -102 0 -1 -63 -3
-140 -3 -128 0 -139 1 -134 18 5 14 4 15 -5 2 -6 -8 -11 -18 -11 -22 0 -5 68
-8 150 -8 83 0 150 4 150 8 0 5 -18 53 -40 107 -36 89 -50 118 -50 103z"/>
<path d="M1251 1755 c0 -5 6 -21 14 -35 8 -14 14 -20 14 -15 0 6 -6 21 -14 35
-8 14 -14 21 -14 15z"/>
<path d="M3702 1739 c-7 -11 -27 -28 -45 -39 -18 -11 -26 -20 -19 -20 15 0 89
66 82 74 -3 3 -11 -4 -18 -15z"/>
<path d="M4571 1755 c0 -5 6 -21 14 -35 8 -14 14 -20 14 -15 0 6 -6 21 -14 35
-8 14 -14 21 -14 15z"/>
<path d="M986 1735 c-9 -26 -7 -32 5 -12 6 10 9 21 6 23 -2 3 -7 -2 -11 -11z"/>
<path d="M4306 1735 c-9 -26 -7 -32 5 -12 6 10 9 21 6 23 -2 3 -7 -2 -11 -11z"/>
<path d="M966 1685 c-9 -26 -7 -32 5 -12 6 10 9 21 6 23 -2 3 -7 -2 -11 -11z"/>
<path d="M4286 1685 c-9 -26 -7 -32 5 -12 6 10 9 21 6 23 -2 3 -7 -2 -11 -11z"/>
<path d="M1280 1685 c0 -5 5 -17 10 -25 5 -8 10 -10 10 -5 0 6 -5 17 -10 25
-5 8 -10 11 -10 5z"/>
<path d="M1760 1680 c8 -5 20 -10 25 -10 6 0 3 5 -5 10 -8 5 -19 10 -25 10 -5
0 -3 -5 5 -10z"/>
<path d="M4600 1685 c0 -5 5 -17 10 -25 5 -8 10 -10 10 -5 0 6 -5 17 -10 25
-5 8 -10 11 -10 5z"/>
<path d="M3598 1673 c7 -3 16 -2 19 1 4 3 -2 6 -13 5 -11 0 -14 -3 -6 -6z"/>
<path d="M946 1635 c-9 -26 -7 -32 5 -12 6 10 9 21 6 23 -2 3 -7 -2 -11 -11z"/>
<path d="M2160 1623 c13 -18 25 -33 27 -33 8 0 -17 38 -33 51 -11 9 -9 2 6
-18z"/>
<path d="M4266 1635 c-9 -26 -7 -32 5 -12 6 10 9 21 6 23 -2 3 -7 -2 -11 -11z"/>
<path d="M1300 1635 c0 -5 5 -17 10 -25 5 -8 10 -10 10 -5 0 6 -5 17 -10 25
-5 8 -10 11 -10 5z"/>
<path d="M3739 1623 c-13 -16 -12 -17 4 -4 16 13 21 21 13 21 -2 0 -10 -8 -17
-17z"/>
<path d="M4620 1635 c0 -5 5 -17 10 -25 5 -8 10 -10 10 -5 0 6 -5 17 -10 25
-5 8 -10 11 -10 5z"/>
<path d="M2030 1589 c47 -29 59 -48 60 -91 0 -25 -8 -46 -27 -69 -22 -26 -23
-29 -6 -18 42 26 57 105 28 143 -17 22 -65 56 -80 56 -5 0 6 -10 25 -21z"/>
<path d="M1320 1585 c0 -5 5 -17 10 -25 5 -8 10 -10 10 -5 0 6 -5 17 -10 25
-5 8 -10 11 -10 5z"/>
<path d="M4640 1585 c0 -5 5 -17 10 -25 5 -8 10 -10 10 -5 0 6 -5 17 -10 25
-5 8 -10 11 -10 5z"/>
<path d="M2198 1518 c5 -85 10 -96 11 -23 0 33 -3 66 -7 73 -5 7 -7 -16 -4
-50z"/>
<path d="M3364 1430 c0 -80 2 -112 3 -72 2 39 2 105 0 145 -1 39 -3 7 -3 -73z"/>
<path d="M3619 1438 c51 -76 97 -141 103 -144 12 -7 -158 244 -180 266 -8 8
27 -47 77 -122z"/>
<path d="M800 1558 c0 -3 -25 -66 -55 -139 -30 -73 -51 -129 -46 -124 14 15
112 257 106 263 -3 3 -5 3 -5 0z"/>
<path d="M4120 1558 c0 -3 -25 -66 -55 -139 -30 -73 -51 -129 -46 -124 14 15
112 257 106 263 -3 3 -5 3 -5 0z"/>
<path d="M1341 1535 c0 -5 6 -21 14 -35 8 -14 14 -20 14 -15 0 6 -6 21 -14 35
-8 14 -14 21 -14 15z"/>
<path d="M1600 1533 c0 -5 23 -6 51 -4 36 2 54 -1 60 -10 7 -11 9 -10 9 4 0
14 -9 17 -60 17 -33 0 -60 -3 -60 -7z"/>
<path d="M3762 1416 c46 -68 84 -123 86 -121 4 4 -157 245 -163 245 -3 0 32
-56 77 -124z"/>
<path d="M4661 1535 c0 -5 6 -21 14 -35 8 -14 14 -20 14 -15 0 6 -6 21 -14 35
-8 14 -14 21 -14 15z"/>
<path d="M1611 1487 c-2 -42 57 -134 100 -158 11 -5 -1 10 -25 35 -29 29 -50
61 -60 93 -8 26 -15 40 -15 30z"/>
<path d="M1720 1486 c0 -8 4 -17 9 -20 5 -4 7 3 4 14 -6 23 -13 26 -13 6z"/>
<path d="M875 1459 c-4 -6 -5 -12 -2 -15 2 -3 7 2 10 11 7 17 1 20 -8 4z"/>
<path d="M1287 1387 c20 -48 38 -86 40 -84 4 5 -55 149 -67 161 -5 5 7 -30 27
-77z"/>
<path d="M1370 1465 c0 -5 5 -17 10 -25 5 -8 10 -10 10 -5 0 6 -5 17 -10 25
-5 8 -10 11 -10 5z"/>
<path d="M4195 1459 c-4 -6 -5 -12 -2 -15 2 -3 7 2 10 11 7 17 1 20 -8 4z"/>
<path d="M4607 1387 c20 -48 38 -86 40 -84 4 5 -55 149 -67 161 -5 5 7 -30 27
-77z"/>
<path d="M4690 1465 c0 -5 5 -17 10 -25 5 -8 10 -10 10 -5 0 6 -5 17 -10 25
-5 8 -10 11 -10 5z"/>
<path d="M1749 1436 c13 -16 51 -41 51 -33 0 2 -15 14 -32 27 -21 15 -28 17
-19 6z"/>
<path d="M856 1415 c-9 -26 -7 -32 5 -12 6 10 9 21 6 23 -2 3 -7 -2 -11 -11z"/>
<path d="M2177 1397 l-17 -32 20 24 c17 20 26 41 18 41 -2 0 -11 -15 -21 -33z"/>
<path d="M4176 1415 c-9 -26 -7 -32 5 -12 6 10 9 21 6 23 -2 3 -7 -2 -11 -11z"/>
<path d="M1390 1415 c0 -5 5 -17 10 -25 5 -8 10 -10 10 -5 0 6 -5 17 -10 25
-5 8 -10 11 -10 5z"/>
<path d="M4710 1415 c0 -5 5 -17 10 -25 5 -8 10 -10 10 -5 0 6 -5 17 -10 25
-5 8 -10 11 -10 5z"/>
<path d="M1988 1383 c7 -3 16 -2 19 1 4 3 -2 6 -13 5 -11 0 -14 -3 -6 -6z"/>
<path d="M836 1365 c-9 -26 -7 -32 5 -12 6 10 9 21 6 23 -2 3 -7 -2 -11 -11z"/>
<path d="M1913 1373 c9 -2 23 -2 30 0 6 3 -1 5 -18 5 -16 0 -22 -2 -12 -5z"/>
<path d="M4156 1365 c-9 -26 -7 -32 5 -12 6 10 9 21 6 23 -2 3 -7 -2 -11 -11z"/>
<path d="M1410 1365 c0 -5 5 -17 10 -25 5 -8 10 -10 10 -5 0 6 -5 17 -10 25
-5 8 -10 11 -10 5z"/>
<path d="M4730 1365 c0 -5 5 -17 10 -25 5 -8 10 -10 10 -5 0 6 -5 17 -10 25
-5 8 -10 11 -10 5z"/>
<path d="M2119 1333 c-13 -16 -12 -17 4 -4 9 7 17 15 17 17 0 8 -8 3 -21 -13z"/>
<path d="M816 1315 c-9 -26 -7 -32 5 -12 6 10 9 21 6 23 -2 3 -7 -2 -11 -11z"/>
<path d="M4136 1315 c-9 -26 -7 -32 5 -12 6 10 9 21 6 23 -2 3 -7 -2 -11 -11z"/>
<path d="M1998 1283 c7 -3 16 -2 19 1 4 3 -2 6 -13 5 -11 0 -14 -3 -6 -6z"/>
<path d="M7483 1263 c9 -2 23 -2 30 0 6 3 -1 5 -18 5 -16 0 -22 -2 -12 -5z"/>
<path d="M7563 1263 c9 -2 23 -2 30 0 6 3 -1 5 -18 5 -16 0 -22 -2 -12 -5z"/>
<path d="M6635 880 c0 -212 1 -298 2 -193 2 106 2 280 0 385 -1 106 -2 20 -2
-192z"/>
<path d="M7142 1178 l-2 -87 -152 -3 -153 -3 -3 -49 c-2 -27 0 -52 5 -57 4 -4
6 16 5 46 l-4 55 151 0 c117 0 153 3 157 13 3 8 3 49 1 93 l-3 79 -2 -87z"/>
<path d="M7924 1160 c0 -58 1 -81 3 -52 2 28 2 76 0 105 -2 28 -3 5 -3 -53z"/>
<path d="M8594 1160 c0 -58 1 -81 3 -52 2 28 2 76 0 105 -2 28 -3 5 -3 -53z"/>
<path d="M8925 1249 c-4 -6 -5 -12 -2 -15 2 -3 7 2 10 11 7 17 1 20 -8 4z"/>
<path d="M9474 1160 c0 -58 1 -81 3 -52 2 28 2 76 0 105 -2 28 -3 5 -3 -53z"/>
<path d="M10144 1160 c0 -58 1 -81 3 -52 2 28 2 76 0 105 -2 28 -3 5 -3 -53z"/>
<path d="M10265 880 c0 -212 1 -298 2 -193 2 106 2 280 0 385 -1 106 -2 20 -2
-192z"/>
<path d="M10772 1178 l-2 -88 -150 0 -150 0 2 -62 2 -63 3 58 4 57 145 0 c112
0 146 3 150 13 3 8 3 49 1 93 l-3 79 -2 -87z"/>
<path d="M9156 1210 c4 -14 15 -43 25 -65 11 -22 16 -29 13 -15 -4 14 -15 43
-25 65 -11 22 -16 29 -13 15z"/>
<path d="M7766 1180 c17 -19 36 -44 42 -55 6 -11 12 -14 12 -7 0 7 -19 32 -42
56 -29 28 -33 30 -12 6z"/>
<path d="M8906 1205 c-9 -26 -7 -32 5 -12 6 10 9 21 6 23 -2 3 -7 -2 -11 -11z"/>
<path d="M7304 1188 l-19 -23 23 19 c12 11 22 21 22 23 0 8 -8 2 -26 -19z"/>
<path d="M8881 1139 c-6 -18 -9 -34 -7 -36 2 -2 9 10 15 28 6 18 9 34 7 36 -2
2 -9 -10 -15 -28z"/>
<path d="M7270 1139 c-6 -11 -10 -25 -8 -30 2 -5 8 4 15 21 13 34 9 40 -7 9z"/>
<path d="M7523 1103 c9 -2 25 -2 35 0 9 3 1 5 -18 5 -19 0 -27 -2 -17 -5z"/>
<path d="M7467 1082 c-28 -31 -20 -75 17 -94 20 -10 20 -10 -1 11 -29 28 -29
65 -1 85 12 9 18 16 12 16 -6 0 -18 -8 -27 -18z"/>
<path d="M7607 1080 c11 -14 23 -34 25 -45 3 -18 12 -20 106 -23 l102 -3 -1
28 c0 15 -4 37 -9 48 -6 14 -7 6 -3 -22 l6 -43 -97 0 c-86 0 -96 2 -96 18 0
10 -12 29 -27 43 l-28 24 22 -25z"/>
<path d="M9206 1080 c4 -14 15 -43 25 -65 11 -22 16 -29 13 -15 -4 14 -15 43
-25 65 -11 22 -16 29 -13 15z"/>
<path d="M7253 1035 c0 -33 2 -45 4 -27 2 18 2 45 0 60 -2 15 -4 0 -4 -33z"/>
<path d="M8856 1075 c-9 -26 -7 -32 5 -12 6 10 9 21 6 23 -2 3 -7 -2 -11 -11z"/>
<path d="M8154 780 c0 -157 2 -221 3 -142 2 78 2 206 0 285 -1 78 -3 14 -3
-143z"/>
<path d="M8364 780 c0 -157 2 -221 3 -142 2 78 2 206 0 285 -1 78 -3 14 -3
-143z"/>
<path d="M9704 780 c0 -157 2 -221 3 -142 2 78 2 206 0 285 -1 78 -3 14 -3
-143z"/>
<path d="M9914 780 c0 -157 2 -221 3 -142 2 78 2 206 0 285 -1 78 -3 14 -3
-143z"/>
<path d="M8836 1025 c-9 -26 -7 -32 5 -12 6 10 9 21 6 23 -2 3 -7 -2 -11 -11z"/>
<path d="M9007 948 c-9 -29 -15 -54 -13 -56 2 -2 12 20 21 48 9 28 15 53 13
55 -2 3 -12 -19 -21 -47z"/>
<path d="M9046 980 c3 -14 11 -32 16 -40 6 -10 7 -7 2 10 -3 14 -11 32 -16 40
-6 10 -7 7 -2 -10z"/>
<path d="M7114 885 c0 -49 1 -71 3 -48 2 23 2 64 0 90 -2 26 -3 8 -3 -42z"/>
<path d="M7260 967 c0 -17 29 -63 57 -87 l28 -25 -26 30 c-15 17 -34 44 -42
60 -9 17 -16 26 -17 22z"/>
<path d="M9254 955 c23 -66 60 -155 63 -151 4 4 -56 158 -64 166 -4 3 -3 -4 1
-15z"/>
<path d="M10744 885 c0 -49 1 -71 3 -48 2 23 2 64 0 90 -2 26 -3 8 -3 -42z"/>
<path d="M8806 945 c-9 -26 -7 -32 5 -12 6 10 9 21 6 23 -2 3 -7 -2 -11 -11z"/>
<path d="M8786 895 c-9 -26 -7 -32 5 -12 6 10 9 21 6 23 -2 3 -7 -2 -11 -11z"/>
<path d="M7750 896 c0 -2 8 -10 18 -17 15 -13 16 -12 3 4 -13 16 -21 21 -21
13z"/>
<path d="M8966 834 c-26 -75 -27 -74 74 -74 50 0 90 3 90 8 0 4 -38 6 -85 4
-49 -2 -85 1 -85 6 0 5 7 29 15 52 8 24 13 45 11 47 -2 2 -11 -17 -20 -43z"/>
<path d="M7790 865 c0 -2 11 -21 25 -41 14 -20 26 -49 26 -63 2 -24 2 -24 6
-3 3 13 -6 41 -22 67 -23 40 -35 54 -35 40z"/>
<path d="M7364 846 c11 -9 24 -16 30 -16 12 0 7 5 -24 19 -24 11 -24 11 -6 -3z"/>
<path d="M9096 840 c3 -14 11 -32 16 -40 6 -10 7 -7 2 10 -3 14 -11 32 -16 40
-6 10 -7 7 -2 -10z"/>
<path d="M8756 815 c-9 -26 -7 -32 5 -12 6 10 9 21 6 23 -2 3 -7 -2 -11 -11z"/>
<path d="M7478 803 c7 -3 16 -2 19 1 4 3 -2 6 -13 5 -11 0 -14 -3 -6 -6z"/>
<path d="M6834 786 c-3 -7 -4 -35 -2 -62 l3 -49 157 -3 157 -3 4 -87 3 -87 2
93 2 92 -161 0 -161 0 4 60 c3 61 1 71 -8 46z"/>
<path d="M10472 738 l-2 -68 155 0 154 0 4 -87 3 -88 2 93 2 92 -155 0 -154 0
-4 63 -3 62 -2 -67z"/>
<path d="M9326 770 c4 -14 15 -43 25 -65 11 -22 16 -29 13 -15 -4 14 -15 43
-25 65 -11 22 -16 29 -13 15z"/>
<path d="M7580 776 c0 -2 7 -7 16 -10 8 -3 12 -2 9 4 -6 10 -25 14 -25 6z"/>
<path d="M8736 765 c-9 -26 -7 -32 5 -12 6 10 9 21 6 23 -2 3 -7 -2 -11 -11z"/>
<path d="M7620 751 c0 -6 4 -13 10 -16 6 -3 7 1 4 9 -7 18 -14 21 -14 7z"/>
<path d="M7241 724 c0 -11 3 -14 6 -6 3 7 2 16 -1 19 -3 4 -6 -2 -5 -13z"/>
<path d="M8711 699 c-6 -18 -9 -34 -7 -36 2 -2 9 10 15 28 6 18 9 34 7 36 -2
2 -9 -10 -15 -28z"/>
<path d="M7451 709 c-1 -9 9 -24 22 -35 22 -19 22 -19 6 1 -9 11 -19 27 -22
35 -5 13 -6 13 -6 -1z"/>
<path d="M7842 675 c0 -16 2 -22 5 -12 2 9 2 23 0 30 -3 6 -5 -1 -5 -18z"/>
<path d="M7251 674 c0 -11 3 -14 6 -6 3 7 2 16 -1 19 -3 4 -6 -2 -5 -13z"/>
<path d="M7600 660 c-8 -5 -10 -10 -5 -10 6 0 17 5 25 10 8 5 11 10 5 10 -5 0
-17 -5 -25 -10z"/>
<path d="M9376 640 c4 -14 15 -43 25 -65 11 -22 16 -29 13 -15 -4 14 -15 43
-25 65 -11 22 -16 29 -13 15z"/>
<path d="M7260 644 c0 -6 7 -19 16 -30 14 -18 14 -18 3 6 -14 31 -19 36 -19
24z"/>
<path d="M8686 635 c-9 -26 -7 -32 5 -12 6 10 9 21 6 23 -2 3 -7 -2 -11 -11z"/>
<path d="M7825 621 c-3 -12 -18 -36 -33 -54 -23 -28 -23 -29 -3 -12 25 22 55
74 48 82 -3 2 -8 -5 -12 -16z"/>
<path d="M8886 577 c-18 -44 -30 -83 -23 -77 8 8 47 110 42 110 -3 0 -11 -15
-19 -33z"/>
<path d="M9171 590 c14 -31 19 -36 19 -24 0 6 -7 19 -16 30 -14 18 -14 18 -3
-6z"/>
<path d="M8661 569 c-6 -18 -9 -34 -7 -36 2 -2 9 10 15 28 6 18 9 34 7 36 -2
2 -9 -10 -15 -28z"/>
<path d="M7310 565 c13 -14 26 -25 28 -25 3 0 -5 11 -18 25 -13 14 -26 25 -28
25 -3 0 5 -11 18 -25z"/>
<path d="M9420 521 c0 -6 4 -13 10 -16 6 -3 7 1 4 9 -7 18 -14 21 -14 7z"/>
<path d="M7493 483 c9 -2 25 -2 35 0 9 3 1 5 -18 5 -19 0 -27 -2 -17 -5z"/>
<path d="M7593 483 c9 -2 23 -2 30 0 6 3 -1 5 -18 5 -16 0 -22 -2 -12 -5z"/>
</g>
</svg>
